HIERARCHY
ROOT Hips
{
	OFFSET 0.000000 0.000000 0.000000
	CHANNELS 6 Xposition Yposition Zposition Zrotation Yrotation Xrotation 
	JOINT LHipJoint
	{
		OFFSET 0.000000 0.000000 0.000000
		CHANNELS 3 Zrotation Yrotation Xrotation
		JOINT LeftUpLeg
		{
			OFFSET 1.363060 -1.794630 0.839290
			CHANNELS 3 Zrotation Yrotation Xrotation
			JOINT LeftLeg
			{
				OFFSET 2.448110 -6.726130 0.000000
				CHANNELS 3 Zrotation Yrotation Xrotation
				JOINT LeftFoot
				{
					OFFSET 2.562200 -7.039590 0.000000
					CHANNELS 3 Zrotation Yrotation Xrotation
					JOINT LeftToeBase
					{
						OFFSET 0.157640 -0.433110 2.322550
						CHANNELS 3 Zrotation Yrotation Xrotation
						End Site
						{
							OFFSET 0.000000 0.000000 0.000000
						}
					}
				}
			}
		}
	}
	JOINT RHipJoint
	{
		OFFSET 0.000000 0.000000 0.000000
		CHANNELS 3 Zrotation Yrotation Xrotation
		JOINT RightUpLeg
		{
			OFFSET -1.305520 -1.794630 0.839290
			CHANNELS 3 Zrotation Yrotation Xrotation
			JOINT RightLeg
			{
				OFFSET -2.542530 -6.985550 0.000000
				CHANNELS 3 Zrotation Yrotation Xrotation
				JOINT RightFoot
				{
					OFFSET -2.568260 -7.056230 0.000000
					CHANNELS 3 Zrotation Yrotation Xrotation
					JOINT RightToeBase
					{
						OFFSET -0.164730 -0.452590 2.363150
						CHANNELS 3 Zrotation Yrotation Xrotation
						End Site
						{
							OFFSET 0.000000 0.000000 0.000000
						}
					}
				}
			}
		}
	}
	JOINT LowerBack
	{
		OFFSET 0.000000 0.000000 0.000000
		CHANNELS 3 Zrotation Yrotation Xrotation
		JOINT Spine
		{
			OFFSET 0.028270 2.035590 -0.193380
			CHANNELS 3 Zrotation Yrotation Xrotation
			JOINT Spine1
			{
				OFFSET 0.056720 2.048850 -0.042750
				CHANNELS 3 Zrotation Yrotation Xrotation
				JOINT Neck
				{
					OFFSET 0.000000 0.000000 0.000000
					CHANNELS 3 Zrotation Yrotation Xrotation
					JOINT Neck1
					{
						OFFSET -0.054170 1.746240 0.172020
						CHANNELS 3 Zrotation Yrotation Xrotation
						JOINT Head
						{
							OFFSET 0.104070 1.761360 -0.123970
							CHANNELS 3 Zrotation Yrotation Xrotation
							End Site
							{
								OFFSET 0.000000 0.000000 0.000000
							}
						}
					}
				}
				JOINT LeftShoulder
				{
					OFFSET 0.000000 0.000000 0.000000
					CHANNELS 3 Zrotation Yrotation Xrotation
					JOINT LeftArm
					{
						OFFSET 3.362410 1.200890 -0.311210
						CHANNELS 3 Zrotation Yrotation Xrotation
						JOINT LeftForeArm
						{
							OFFSET 4.983000 -0.000000 -0.000000
							CHANNELS 3 Zrotation Yrotation Xrotation
							JOINT LeftHand
							{
								OFFSET 3.483560 -0.000000 -0.000000
								CHANNELS 3 Zrotation Yrotation Xrotation
								JOINT LeftFingerBase
								{
									OFFSET 0.000000 0.000000 0.000000
									CHANNELS 3 Zrotation Yrotation Xrotation
									JOINT LeftHandIndex1
									{
										OFFSET 0.715260 -0.000000 -0.000000
										CHANNELS 3 Zrotation Yrotation Xrotation
										End Site
										{
											OFFSET 0.000000 0.000000 0.000000
										}
									}
								}
								JOINT LThumb
								{
									OFFSET 0.000000 0.000000 0.000000
									CHANNELS 3 Zrotation Yrotation Xrotation
									End Site
									{
										OFFSET 0.000000 0.000000 0.000000
									}
								}
							}
						}
					}
				}
				JOINT RightShoulder
				{
					OFFSET 0.000000 0.000000 0.000000
					CHANNELS 3 Zrotation Yrotation Xrotation
					JOINT RightArm
					{
						OFFSET -3.136600 1.374050 -0.404650
						CHANNELS 3 Zrotation Yrotation Xrotation
						JOINT RightForeArm
						{
							OFFSET -5.241900 -0.000000 -0.000000
							CHANNELS 3 Zrotation Yrotation Xrotation
							JOINT RightHand
							{
								OFFSET -3.444170 -0.000000 -0.000000
								CHANNELS 3 Zrotation Yrotation Xrotation
								JOINT RightFingerBase
								{
									OFFSET 0.000000 0.000000 0.000000
									CHANNELS 3 Zrotation Yrotation Xrotation
									JOINT RightHandIndex1
									{
										OFFSET -0.622530 -0.000000 -0.000000
										CHANNELS 3 Zrotation Yrotation Xrotation
										End Site
										{
											OFFSET 0.000000 0.000000 0.000000
										}
									}
								}
								JOINT RThumb
								{
									OFFSET 0.000000 0.000000 0.000000
									CHANNELS 3 Zrotation Yrotation Xrotation
									End Site
									{
										OFFSET 0.000000 0.000000 0.000000
									}
								}
							}
						}
					}
				}
			}
		}
	}
}
MOTION
Frames: 11
Frame Time: 0.008333
-0.161506 18.478591 10.895561 -43.199751 -81.785646 37.328683 15.485740 2.165035 -1.170236 -36.606893 -7.006807 1.833496 8.784498 9.699884 36.960410 -3.724442 -22.271101 -37.567894 0.390000 4.010300 11.105800 -14.966648 -4.942746 -0.790609 49.508090 -0.796161 1.564079 -8.511462 -11.088969 36.001385 -2.629942 4.551843 -39.539893 -0.237400 -3.136000 8.657500 -2.566387 1.467873 -0.646227 19.969201 -1.050009 23.771842 -4.376352 1.223832 -11.720377 -7.085247 -0.014972 -32.665967 -3.130669 3.010485 34.880403 1.685900 0.066800 12.274600 -0.558565 0.988337 1.568987 -97.939547 6.423666 21.952795 22.428266 -32.996173 -3.696802 2.904591 5.754861 -1.203473 20.895501 27.614087 6.922500 -7.125000 0.000000 0.000000 -11.218300 52.644200 -2.132000 -3.891098 -1.623751 0.469046 92.229522 -1.303860 17.736569 -20.478209 28.882301 -3.083477 -2.088827 -0.040066 -8.897742 -23.361073 10.595234 -4.046600 7.125000 0.000000 0.000000 4.070700 -18.787900 2.549200 
-0.160256 18.478859 10.900650 -41.531504 -82.000554 35.832344 15.470310 2.184052 -1.102091 -37.029662 -7.280331 1.811902 8.769244 9.674498 36.756881 -3.651710 -22.090846 -37.567445 0.398000 4.050600 11.219200 -15.070213 -4.966843 -0.805890 49.283123 -0.636394 1.361373 -8.565838 -11.096808 36.150712 -2.624291 4.644331 -39.690279 -0.278900 -3.396500 9.384600 -2.829651 1.498175 -0.741988 19.859737 -0.972819 23.681107 -4.245653 1.279904 -11.713338 -7.115766 -0.022586 -32.587779 -3.231497 3.019716 34.850521 1.675000 0.049900 12.239900 -0.584591 0.985439 1.575800 -98.025998 6.445475 21.991542 22.422266 -32.988405 -3.696659 2.923681 5.755577 -1.247673 21.038488 27.637412 6.979600 -7.125000 0.000000 0.000000 -11.110700 52.693700 -2.124700 -3.866827 -1.614088 0.475922 92.128609 -1.335949 17.700487 -20.482631 28.863926 -3.079946 -2.093766 -0.032822 -8.906143 -23.391743 10.668706 -4.077400 7.125000 0.000000 0.000000 4.053300 -18.715300 2.544800 
-0.158471 18.481359 10.903954 -39.748798 -82.196967 34.276796 15.442111 2.252355 -0.987347 -37.387385 -7.544102 1.600321 8.771986 9.689688 36.687508 -3.499496 -21.741119 -37.668837 0.352500 3.814700 10.555800 -15.193097 -4.951736 -0.795590 49.223314 -0.098707 1.285880 -8.630447 -11.093747 36.247377 -2.677993 4.481303 -39.841672 -0.348000 -3.790400 10.487800 -2.864585 1.522387 -0.994452 19.372313 -0.870932 23.774270 -4.136711 1.325165 -11.719057 -7.161897 -0.073834 -32.557533 -3.081706 2.908076 34.799521 1.702000 0.024300 12.198400 -0.563496 0.989157 1.568859 -97.944512 6.408548 22.073379 22.420653 -32.961755 -3.690877 2.914114 5.753097 -1.241009 20.966056 27.613662 6.947300 -7.125000 0.000000 0.000000 -11.163700 52.659700 -2.125700 -3.772972 -1.619424 0.461133 92.168705 -1.328071 17.631498 -20.467795 28.836608 -3.072033 -2.101966 -0.014041 -8.853384 -23.473320 10.797538 -4.136300 7.125000 0.000000 0.000000 4.002500 -18.589800 2.523900 
-0.158024 18.480645 10.897615 -40.401779 -82.108665 34.825556 15.452571 2.224596 -1.068399 -37.247694 -7.351914 1.783859 8.763455 9.657909 36.550628 -3.435157 -21.626518 -37.774606 0.276300 3.380700 9.340500 -15.149432 -4.895522 -0.702026 49.509017 0.459926 1.485338 -8.654354 -11.136772 36.368093 -2.813155 4.010817 -40.009766 -0.447100 -4.290100 11.894200 -2.724965 1.528497 -0.964389 19.258477 -0.881080 23.935518 -4.162553 1.318868 -11.758001 -7.117400 -0.087680 -32.495711 -2.988720 2.837920 34.635748 1.702000 0.018700 12.152900 -0.529183 1.000845 1.549739 -97.869875 6.355757 22.040708 22.385870 -32.918486 -3.680301 2.944393 5.736173 -1.021500 21.028960 27.591728 6.965000 -7.125000 0.000000 0.000000 -11.103100 52.653700 -2.112300 -3.764408 -1.623524 0.444599 92.284093 -1.327679 17.744124 -20.445204 28.828908 -3.072253 -2.123334 -0.010345 -8.926088 -23.671815 10.850323 -4.191800 7.125000 0.000000 0.000000 3.877800 -18.526200 2.450300 
-0.162310 18.479484 10.878955 -41.688842 -81.938513 35.923798 15.480778 2.149209 -1.234510 -36.918480 -6.983583 2.059764 8.752160 9.613496 36.447681 -3.512963 -21.798873 -37.718797 0.250400 3.220100 8.892100 -15.043961 -4.872073 -0.623597 49.793637 0.672533 1.678931 -8.639528 -11.175970 36.423645 -2.896372 3.729019 -40.111015 -0.492300 -4.498600 12.483900 -2.989552 1.518649 -0.781179 19.747619 -0.966683 23.870464 -4.123755 1.324804 -11.732916 -7.156348 -0.081697 -32.438894 -2.913330 2.831911 34.579601 1.725300 0.024200 12.152600 -0.542051 1.013500 1.548803 -97.947244 6.377033 21.917440 22.366213 -32.908550 -3.680726 3.002296 5.714071 -0.856995 21.312255 27.568033 7.062300 -7.125000 0.000000 0.000000 -10.859700 52.691000 -2.075100 -3.858427 -1.595195 0.458953 92.332384 -1.344452 17.910468 -20.397982 28.789887 -3.066683 -2.142365 -0.022432 -8.954249 -23.823705 10.762169 -4.189500 7.125000 0.000000 0.000000 3.782800 -18.598700 2.383900 
-0.156060 18.481448 10.895294 -38.407210 -82.305747 32.740426 15.362221 2.262202 -1.027164 -37.425591 -7.068374 1.805145 8.728212 9.642747 36.431612 -3.534522 -21.806557 -37.566964 0.271000 3.348800 9.251400 -15.219272 -4.887721 -0.778930 49.105832 0.048939 1.457642 -8.664496 -11.119760 36.398199 -2.726225 4.357940 -39.970342 -0.378100 -3.949300 10.934100 -3.021589 1.542437 -0.862450 18.962626 -0.867905 24.093346 -3.936222 1.371108 -11.881582 -7.302107 -0.140356 -32.531896 -2.641255 2.722072 34.684483 1.799800 0.004200 12.157200 -0.498160 1.029733 1.537899 -97.988683 6.370769 21.960469 22.377650 -32.942057 -3.687117 3.008169 5.713233 -0.964139 21.406068 27.546518 7.089800 -7.125000 0.000000 0.000000 -10.777700 52.691600 -2.059300 -3.716754 -1.614667 0.431967 92.265660 -1.345534 17.843735 -20.398429 28.778760 -3.063400 -2.151225 -0.016014 -8.818222 -23.942422 10.737818 -4.202600 7.125000 0.000000 0.000000 3.704100 -18.617800 2.332600 
-0.152578 18.480823 10.899311 -37.835003 -82.349771 32.203524 15.348979 2.292587 -0.964564 -37.540103 -7.203248 1.711434 8.737018 9.662911 36.468508 -3.497312 -21.691947 -37.555695 0.276800 3.384100 9.350100 -15.253391 -4.890387 -0.794392 49.059113 0.038719 1.408908 -8.680054 -11.119201 36.384220 -2.767056 4.139048 -39.915274 -0.287500 -3.448500 9.530000 -2.943636 1.559941 -0.879548 18.772659 -0.832816 24.172425 -3.948905 1.379561 -11.924747 -7.453248 -0.218866 -32.518629 -2.395019 2.592256 34.630879 1.854000 -0.021800 12.133900 -0.475012 1.034599 1.532345 -97.969369 6.331175 22.053419 22.387396 -32.967716 -3.689895 2.970685 5.715859 -1.050471 21.212283 27.495221 7.006300 -7.125000 0.000000 0.000000 -10.921300 52.608300 -2.064800 -3.669463 -1.626111 0.421896 92.268349 -1.364446 17.833590 -20.440034 28.831907 -3.076861 -2.159209 -0.007446 -8.771025 -24.061619 10.801092 -4.248800 7.125000 0.000000 0.000000 3.626400 -18.547700 2.289100 
-0.150079 18.483680 10.900740 -38.970205 -82.092509 33.310668 15.411567 2.231552 -1.032595 -37.358601 -7.338605 1.799657 8.763251 9.665905 36.551594 -3.543608 -21.736238 -37.477232 0.333300 3.710400 10.263500 -15.175298 -4.910957 -0.772719 49.263568 0.024537 1.442739 -8.649645 -11.127496 36.322916 -2.791968 4.034265 -39.903384 -0.286900 -3.444700 9.519300 -2.988997 1.415530 -0.750037 19.396128 -1.063690 23.960193 -4.115203 1.254572 -11.870467 -7.586101 -0.149003 -32.316529 -2.344391 2.718913 34.451784 1.903700 0.038600 12.071000 -0.500078 1.014215 1.538947 -98.107834 6.384796 21.818241 22.409290 -33.026901 -3.701138 2.949319 5.722370 -1.114146 21.133421 27.497032 6.979300 -7.125000 0.000000 0.000000 -10.983000 52.593300 -2.072600 -3.761129 -1.617405 0.433923 92.142148 -1.424883 18.310032 -20.467785 28.836171 -3.083905 -2.157043 0.007315 -8.789909 -24.037408 10.969436 -4.305100 7.125000 0.000000 0.000000 3.645100 -18.384600 2.314100 
-0.149543 18.488859 10.907168 -40.335358 -81.768176 34.747739 15.509558 2.170580 -1.093370 -37.168523 -7.587261 1.790359 8.796008 9.679918 36.722668 -3.546264 -21.768689 -37.556286 0.380500 3.961800 10.969100 -15.090575 -4.979873 -0.786159 49.382042 -0.298248 1.324823 -8.587321 -11.099516 36.158894 -2.682528 4.431349 -39.770783 -0.303300 -3.540800 9.788200 -3.115666 1.205687 -0.677341 20.399200 -1.374081 23.534305 -4.350663 1.085312 -11.694020 -7.866089 -0.048928 -32.035309 -2.332490 2.948916 34.250683 1.981900 0.126400 11.998600 -0.554514 0.965690 1.559590 -98.406308 6.467413 21.401059 22.431914 -33.111220 -3.715884 2.910995 5.735901 -1.249379 20.997787 27.504165 6.933500 -7.125000 0.000000 0.000000 -11.091700 52.570700 -2.087400 -3.906833 -1.605796 0.459909 91.869572 -1.491773 18.890485 -20.518877 28.837645 -3.094739 -2.149488 0.005399 -8.922368 -23.932770 11.051918 -4.315700 7.125000 0.000000 0.000000 3.715900 -18.306700 2.365600 
-0.147936 18.486269 10.913060 -41.914658 -81.480045 36.400897 15.608223 2.143719 -1.152502 -36.943911 -7.709501 1.719611 8.820113 9.686866 36.851132 -3.457736 -21.688547 -37.836603 0.341700 3.756400 10.392500 -15.005110 -5.037624 -0.764934 49.589321 -0.456624 1.203031 -8.544213 -11.089144 36.036158 -2.643775 4.501211 -39.609431 -0.283800 -3.426000 9.467000 -3.046444 1.114744 -0.645598 21.134744 -1.517544 23.222649 -4.601020 0.991105 -11.535167 -8.217393 -0.102272 -31.970221 -2.139364 2.953837 34.250061 2.067600 0.133300 12.010200 -0.587364 0.925274 1.582267 -98.592382 6.476569 21.241024 22.457293 -33.195318 -3.727935 2.840033 5.769563 -1.340876 20.628230 27.627034 6.834000 -7.125000 0.000000 0.000000 -11.432400 52.604200 -2.162300 -3.994971 -1.606836 0.487281 91.723442 -1.559232 19.108494 -20.630560 28.947471 -3.129132 -2.116880 -0.042459 -9.146278 -23.626878 10.768082 -4.160900 7.125000 0.000000 0.000000 3.906100 -18.590300 2.462800 
-0.145436 18.483859 10.911275 -42.266485 -81.417491 36.794904 15.627433 2.177166 -1.146962 -36.822432 -7.635401 1.550489 8.823180 9.692869 36.926687 -3.451351 -21.750925 -37.965547 0.302100 3.534200 9.769800 -14.997587 -5.041486 -0.726517 49.753511 -0.265131 1.207502 -8.547859 -11.089472 35.989767 -2.712325 4.185760 -39.573853 -0.279700 -3.401600 9.398900 -2.969888 1.156518 -0.689488 21.079111 -1.471396 23.289577 -4.599941 1.018497 -11.525780 -8.212999 -0.202361 -32.169901 -2.056056 2.804682 34.432666 2.057900 0.075200 12.095300 -0.579129 0.935267 1.583142 -98.513484 6.380092 21.371364 22.481664 -33.222791 -3.728132 2.765165 5.799244 -1.559838 20.265031 27.684369 6.717100 -7.125000 0.000000 0.000000 -11.754400 52.582600 -2.218300 -3.971933 -1.614225 0.495354 91.747243 -1.605105 19.156828 -20.757280 29.133505 -3.175692 -2.069905 -0.100087 -9.361021 -23.230327 10.383687 -3.958700 7.125000 0.000000 0.000000 4.151100 -18.974400 2.582600 
